<?xml version="1.0" encoding="utf-8"?>
<!-- Generator: Fusion 360, Shaper Origin Export Add-In, Version 1.5.0  -->
<svg enable-background="new 0 0 7.8400001 6.7200001" height="6.7200001cm" shaper:fusionaddin="version:1.5.0" version="1.1" viewBox="0 0 7.8400001 6.7200001" width="7.8400001cm" x="0cm" xml:space="preserve" xmlns="http://www.w3.org/2000/svg" xmlns:shaper="http://www.shapertools.com/namespaces/shaper" xmlns:xlink="http://www.w3.org/1999/xlink" y="0cm"><path d="M3.9200001,6.7200001 L5.8800001,3.3600001 3.9200001,-0 0,0 -1.96,3.3600001 0,6.7200001 3.9200001,6.7200001z" fill="rgb(0,0,0)" shaper:cutDepth="0.001" shaper:pathType="exterior" transform="matrix(1,0,0,-1,1.96,6.7200001)" vector-effect="non-scaling-stroke" /><path d="M-1.4104931,4.1512171 a0.15,0.15 0 1,1 0.3,0 a0.15,0.15 0 1,1 -0.3,0z" fill="rgb(255,255,255)" shaper:cutDepth="0.001" shaper:pathType="interior" stroke="rgb(0,0,0)" transform="matrix(1,0,0,-1,1.96,6.7200001)" vector-effect="non-scaling-stroke" /><path d="M-1.4104931,2.551217 a0.15,0.15 0 1,1 0.3,0 a0.15,0.15 0 1,1 -0.3,0z" fill="rgb(255,255,255)" shaper:cutDepth="0.001" shaper:pathType="interior" stroke="rgb(0,0,0)" transform="matrix(1,0,0,-1,1.96,6.7200001)" vector-effect="non-scaling-stroke" /><path d="M1.639507,3.951217 L2.539507,3.951217 2.539507,4.351217 1.639507,4.351217 1.639507,3.951217z" fill="rgb(255,255,255)" shaper:cutDepth="0.001" shaper:pathType="interior" stroke="rgb(0,0,0)" transform="matrix(1,0,0,-1,1.96,6.7200001)" vector-effect="non-scaling-stroke" /></svg>