<?xml version="1.0" encoding="utf-8"?>
<!-- Generator: Fusion 360, Shaper Origin Export Add-In, Version 1.5.0  -->
<svg enable-background="new 0 0 4.8421133 4.8421133" height="4.8421133cm" shaper:fusionaddin="version:1.5.0" version="1.1" viewBox="0 0 4.8421133 4.8421133" width="4.8421133cm" x="0cm" xml:space="preserve" xmlns="http://www.w3.org/2000/svg" xmlns:shaper="http://www.shapertools.com/namespaces/shaper" xmlns:xlink="http://www.w3.org/1999/xlink" y="0cm"><path d="M0.5132421,0.1938811 L1.185397,-0.527207 A2.4210566,2.4210566 307.2483929 0,1 1.6431441,-0.070725 L0.9079394,0.6080404 1.81297,0.18304 A2.4210566,2.4210566 329.8240874 0,1 2.0601697,0.7794187 L1.1337618,1.108052 2.1189333,1.073451 A2.4210566,2.4210566 352.2483929 0,1 2.1198279,1.7199086 L1.12,1.68 2.060474,2.0194327 A2.4210566,2.4210566 14.8240874 0,1 1.8135671,2.6159326 L0.926119,2.1932421 1.647207,2.865397 A2.4210566,2.4210566 37.2483929 0,1 1.190725,3.3231441 L0.5119596,2.5879394 0.93696,3.4929701 A2.4210566,2.4210566 59.8240874 0,1 0.3405813,3.7401697 L0.011948,2.8137618 0.046549,3.7989333 A2.4210566,2.4210566 82.2483929 0,1 -0.5999086,3.7998279 L-0.56,2.8 -0.8994327,3.740474 A2.4210566,2.4210566 104.8240874 0,1 -1.4959326,3.4935671 L-1.0732421,2.606119 -1.745397,3.3272071 A2.4210566,2.4210566 127.2483929 0,1 -2.2031441,2.870725 L-1.4679394,2.1919596 -2.3729701,2.61696 A2.4210566,2.4210566 149.8240874 0,1 -2.6201697,2.0205813 L-1.6937618,1.6919481 -2.6789333,1.7265491 A2.4210566,2.4210566 172.2483929 0,1 -2.6798279,1.0800914 L-1.68,1.12 -2.620474,0.7805674 A2.4210566,2.4210566 194.8240874 0,1 -2.3735671,0.1840674 L-1.486119,0.6067579 -2.207207,-0.0653969 A2.4210566,2.4210566 217.2483929 0,1 -1.750725,-0.5231441 L-1.0719596,0.2120606 -1.49696,-0.69297 A2.4210566,2.4210566 239.8240874 0,1 -0.9005813,-0.9401697 L-0.5719481,-0.0137617 -0.606549,-0.9989333 A2.4210566,2.4210566 262.2483929 0,1 0.0399086,-0.9998278 L0,0 0.3394326,-0.940474 A2.4210566,2.4210566 284.8240874 0,1 0.9359326,-0.6935671 L0.5132421,0.1938811z" fill="rgb(0,0,0)" shaper:cutDepth="0.0014" shaper:pathType="exterior" transform="matrix(1,0,0,-1,2.7010566,3.8210567)" vector-effect="non-scaling-stroke" /></svg>